# xmcd
#
# Track frame offsets: 
#        150
#        12275
#        25467
#        44300
#        55530
#        67180
#        80245
#        93272
#        103815
#        117072
#        129300
#        141000
#        154395
#        166422
#        178285
#        188560
#        203632
#        215325
#        230152
#        248002
#        258542
#        270297
#        282847
#        294635
#        306142
#        317327
#
# Disc length: 4383 seconds
#
# Revision: 4
# Processed by: cddbd v1.5.2PL0 Copyright (c) Steve Scherf et al.
# Submitted via: ExactAudioCopy v0.99pb5
#
DISCID=76111d1a
DTITLE=Various Artist - The Greatest Oldies
DYEAR=1992
DGENRE=Oldies
TTITLE0=The Platters - Smoke Gets In Your Eyes
TTITLE1=Persy Sledge - When A Man Loves A Woman
TTITLE2=Lobo - I'd Love You To Want Me
TTITLE3=The Cascades - Rhythm Of The Rain
TTITLE4=Ray Peterson - Corinna Corinna
TTITLE5=Ray Peterson - Tell Laura I Love Her
TTITLE6=B.J. Thomas - Raindrops Keep Falling On My Head
TTITLE7=The Everly Brothers - Devoted To You
TTITLE8=Pattie Page - Tennesse Waltz
TTITLE9=The Drifters - Under The Boardwalk
TTITLE10=The Platters - The Great Pretender
TTITLE11=Ben E. King - Stand By Me
TTITLE12=Pat Boone - April Love
TTITLE13=Skeeter Davis - The End Of The World
TTITLE14=Pat Boone - Love Letter In The Sand
TTITLE15=Pattie Page - I Went To Your Wedding
TTITLE16=The Platters - Only You
TTITLE17=Kingston Trio - Tom Dooley
TTITLE18=Marmalade - Reflection Of My Life
TTITLE19=Frankie Lane - Sixteen Tons
TTITLE20=The Drifters - Save The Last Dance For Me
TTITLE21=Gallery - Nice To Be With You
TTITLE22=Pat Boone - Moody River
TTITLE23=Kenny Roger - Poem For My Little Lady
TTITLE24=Frankie Lane - Rose Rose I Love You
TTITLE25=Jerry Butler - Moon River
EXTD=YEAR: 1992
EXTT0=
EXTT1=
EXTT2=
EXTT3=
EXTT4=
EXTT5=
EXTT6=
EXTT7=
EXTT8=
EXTT9=
EXTT10=
EXTT11=
EXTT12=
EXTT13=
EXTT14=
EXTT15=
EXTT16=
EXTT17=
EXTT18=
EXTT19=
EXTT20=
EXTT21=
EXTT22=
EXTT23=
EXTT24=
EXTT25=
PLAYORDER=
